<?xml version="1.0" standalone="no"?>
<svg xmlns:xlink="http://www.w3.org/1999/xlink" id="wave" style="transform:rotate(0deg); transition: 0.3s" viewBox="0 0 1440 260" version="1.1" xmlns="http://www.w3.org/2000/svg"><defs><linearGradient id="sw-gradient-0" x1="0" x2="0" y1="1" y2="0"><stop stop-color="rgba(232.588, 232.588, 232.588, 1)" offset="0%"/><stop stop-color="rgba(255, 255, 255, 1)" offset="100%"/></linearGradient></defs><path style="transform:translate(0, 0px); opacity:1" fill="url(#sw-gradient-0)" d="M0,104L21.8,112.7C43.6,121,87,139,131,125.7C174.5,113,218,69,262,47.7C305.5,26,349,26,393,47.7C436.4,69,480,113,524,117C567.3,121,611,87,655,60.7C698.2,35,742,17,785,17.3C829.1,17,873,35,916,47.7C960,61,1004,69,1047,73.7C1090.9,78,1135,78,1178,78C1221.8,78,1265,78,1309,78C1352.7,78,1396,78,1440,95.3C1483.6,113,1527,147,1571,160.3C1614.5,173,1658,165,1702,147.3C1745.5,130,1789,104,1833,82.3C1876.4,61,1920,43,1964,34.7C2007.3,26,2051,26,2095,21.7C2138.2,17,2182,9,2225,34.7C2269.1,61,2313,121,2356,138.7C2400,156,2444,130,2487,108.3C2530.9,87,2575,69,2618,73.7C2661.8,78,2705,104,2749,130C2792.7,156,2836,182,2880,186.3C2923.6,191,2967,173,3011,156C3054.5,139,3098,121,3120,112.7L3141.8,104L3141.8,260L3120,260C3098.2,260,3055,260,3011,260C2967.3,260,2924,260,2880,260C2836.4,260,2793,260,2749,260C2705.5,260,2662,260,2618,260C2574.5,260,2531,260,2487,260C2443.6,260,2400,260,2356,260C2312.7,260,2269,260,2225,260C2181.8,260,2138,260,2095,260C2050.9,260,2007,260,1964,260C1920,260,1876,260,1833,260C1789.1,260,1745,260,1702,260C1658.2,260,1615,260,1571,260C1527.3,260,1484,260,1440,260C1396.4,260,1353,260,1309,260C1265.5,260,1222,260,1178,260C1134.5,260,1091,260,1047,260C1003.6,260,960,260,916,260C872.7,260,829,260,785,260C741.8,260,698,260,655,260C610.9,260,567,260,524,260C480,260,436,260,393,260C349.1,260,305,260,262,260C218.2,260,175,260,131,260C87.3,260,44,260,22,260L0,260Z"/></svg>